# xmcd
#
# Track frame offsets:
#	150
#	5201
#	33226
#	48835
#	84312
#	102709
#	137967
#	156390
#	174397
#	210176
#	235971
#	255054
#	281086
#
# Disc length: 4152 seconds
#
# Revision: 0
# Processed by: cddbd v1.5.2PL0 Copyright (c) Steve Scherf et al.
# Submitted via: EasyCDDAExtractor 16.0.1.1
#
DISCID=a910360d
DTITLE=Morrison Boomer - Down the Hatch
DYEAR=2009
DGENRE=Acoustic
TTITLE0=Down the Hatch
TTITLE1=If My Heart Could Speak
TTITLE2=Eyes Open Wide
TTITLE3=The Bird
TTITLE4=My Final Cause
TTITLE5=Rise and Shine
TTITLE6=Break it Down Slowly
TTITLE7=Robin Hood
TTITLE8=Let it Burn
TTITLE9=Hard to be Sad
TTITLE10=Hear You Smile
TTITLE11=Like a Child
TTITLE12=Sunburnt Tongue
EXTD=
EXTT0=
EXTT1=
EXTT2=
EXTT3=
EXTT4=
EXTT5=
EXTT6=
EXTT7=
EXTT8=
EXTT9=
EXTT10=
EXTT11=
EXTT12=
PLAYORDER=
